<svg viewBox="0 0 260 300" xmlns="http://www.w3.org/2000/svg">
  <defs>
    <linearGradient id="g0" gradientUnits="userSpaceOnUse" x1="50" y1="100" x2="150" y2="100">
      <stop offset="0%" stop-color="#FF0066"/><stop offset="20%" stop-color="#FF1A75"/>
      <stop offset="45%" stop-color="#FF4D99"/><stop offset="50%" stop-color="#FF66AA"/>
      <stop offset="55%" stop-color="#FF4D99"/><stop offset="80%" stop-color="#FF1A75"/>
      <stop offset="100%" stop-color="#FF0066"/>
    </linearGradient>
    <linearGradient id="g45" gradientUnits="userSpaceOnUse" x1="50" y1="50" x2="150" y2="150">
      <stop offset="0%" stop-color="#FF0066"/><stop offset="20%" stop-color="#FF1A75"/>
      <stop offset="45%" stop-color="#FF4D99"/><stop offset="50%" stop-color="#FF66AA"/>
      <stop offset="55%" stop-color="#FF4D99"/><stop offset="80%" stop-color="#FF1A75"/>
      <stop offset="100%" stop-color="#FF0066"/>
    </linearGradient>
    <linearGradient id="g90" gradientUnits="userSpaceOnUse" x1="100" y1="50" x2="100" y2="150">
      <stop offset="0%" stop-color="#FF0066"/><stop offset="20%" stop-color="#FF1A75"/>
      <stop offset="45%" stop-color="#FF4D99"/><stop offset="50%" stop-color="#FF66AA"/>
      <stop offset="55%" stop-color="#FF4D99"/><stop offset="80%" stop-color="#FF1A75"/>
      <stop offset="100%" stop-color="#FF0066"/>
    </linearGradient>
    <linearGradient id="g135" gradientUnits="userSpaceOnUse" x1="150" y1="50" x2="50" y2="150">
      <stop offset="0%" stop-color="#FF0066"/><stop offset="20%" stop-color="#FF1A75"/>
      <stop offset="45%" stop-color="#FF4D99"/><stop offset="50%" stop-color="#FF66AA"/>
      <stop offset="55%" stop-color="#FF4D99"/><stop offset="80%" stop-color="#FF1A75"/>
      <stop offset="100%" stop-color="#FF0066"/>
    </linearGradient>
  </defs>

  <!-- Symbol (120x120, centered) -->
  <svg x="70" y="10" width="120" height="120" viewBox="0 0 200 200">
    <circle cx="100" cy="100" r="86" fill="none" stroke="#FF69B4" stroke-width="2.5" stroke-opacity="0.4"/>
    <path d="M 100,14 C 136,48 136,152 100,186 C 64,152 64,48 100,14 Z" fill="url(#g0)" fill-opacity="0.2"/>
    <path d="M 100,14 C 136,48 136,152 100,186 C 64,152 64,48 100,14 Z" transform="rotate(45, 100, 100)" fill="url(#g45)" fill-opacity="0.2"/>
    <path d="M 100,14 C 136,48 136,152 100,186 C 64,152 64,48 100,14 Z" transform="rotate(90, 100, 100)" fill="url(#g90)" fill-opacity="0.2"/>
    <path d="M 100,14 C 136,48 136,152 100,186 C 64,152 64,48 100,14 Z" transform="rotate(135, 100, 100)" fill="url(#g135)" fill-opacity="0.2"/>
  </svg>

  <!-- BDX text (outlined from 116angmuburi) -->
  <path d="M39.93 176.03Q43.59 176.41 46.03 179.01Q48.46 181.62 48.46 185.27Q48.46 189.11 45.73 191.82Q43.0 194.54 39.14 194.54H23.25Q22.97 194.54 22.75 194.34Q22.54 194.13 22.54 193.83V176.71V161.73Q22.54 161.43 22.75 161.23Q22.97 161.02 23.25 161.02H35.34Q38.74 161.02 41.16 163.42Q43.59 165.82 43.59 169.22Q43.59 173.46 39.93 176.03ZM23.99 162.45V175.98H35.34Q38.15 175.98 40.15 174.0Q42.14 172.02 42.14 169.22Q42.14 166.43 40.15 164.44Q38.15 162.45 35.34 162.45ZM39.14 193.12Q42.39 193.12 44.71 190.81Q47.02 188.5 47.02 185.27Q47.02 182.02 44.71 179.72Q42.39 177.43 39.14 177.43H35.34H23.99V193.12Z" fill="#FF0066"/>
  <path d="M126.22 161.02Q133.12 161.02 138.04 165.94Q142.95 170.85 142.95 177.78Q142.95 184.71 138.04 189.63Q133.12 194.54 126.22 194.54H116.64Q116.34 194.54 116.14 194.34Q115.93 194.13 115.93 193.83V161.73Q115.93 161.43 116.14 161.23Q116.34 161.02 116.64 161.02ZM126.22 193.12Q132.54 193.12 137.03 188.62Q141.53 184.13 141.53 177.78Q141.53 171.43 137.03 166.94Q132.54 162.45 126.22 162.45H117.36V193.12Z" fill="#FF0066"/>
  <path d="M237.0 161.18Q237.23 161.38 237.27 161.66Q237.31 161.94 237.13 162.19L224.87 177.78L237.13 193.37Q237.31 193.62 237.27 193.9Q237.23 194.18 237.0 194.39Q236.8 194.54 236.57 194.54Q236.24 194.54 236.01 194.26L223.98 178.95L211.92 194.26Q211.69 194.54 211.36 194.54Q211.13 194.54 210.93 194.39Q210.7 194.18 210.66 193.9Q210.62 193.62 210.8 193.37L223.06 177.78L210.8 162.19Q210.62 161.94 210.66 161.66Q210.7 161.38 210.93 161.18Q211.16 161.0 211.45 161.04Q211.74 161.07 211.92 161.3L223.98 176.61L236.01 161.3Q236.19 161.07 236.48 161.04Q236.78 161.0 237.0 161.18Z" fill="#FF0066"/>

  <!-- BEAUTY DECISION EXPERIENCE (outlined from 116angmuburi) -->
  <path d="M24.98 214.01Q25.9 214.1 26.51 214.75Q27.12 215.4 27.12 216.32Q27.12 217.28 26.43 217.96Q25.75 218.63 24.79 218.63H20.81Q20.74 218.63 20.69 218.58Q20.63 218.53 20.63 218.46V214.18V210.43Q20.63 210.36 20.69 210.31Q20.74 210.26 20.81 210.26H23.83Q24.68 210.26 25.29 210.86Q25.9 211.46 25.9 212.31Q25.9 213.37 24.98 214.01ZM21.0 210.61V213.99H23.83Q24.54 213.99 25.04 213.5Q25.54 213.0 25.54 212.31Q25.54 211.61 25.04 211.11Q24.54 210.61 23.83 210.61ZM24.79 218.28Q25.6 218.28 26.18 217.7Q26.75 217.12 26.75 216.32Q26.75 215.51 26.18 214.93Q25.6 214.36 24.79 214.36H23.83H21.0V218.28Z" fill="#FF69B4" stroke="#FF69B4" stroke-width="0.15"/>
  <path d="M36.22 210.61H30.22V214.27H34.7Q34.77 214.27 34.83 214.32Q34.88 214.37 34.88 214.45Q34.88 214.52 34.83 214.57Q34.77 214.62 34.7 214.62H30.22V218.28H36.22Q36.29 218.28 36.34 218.33Q36.39 218.38 36.39 218.46Q36.39 218.53 36.34 218.58Q36.29 218.63 36.22 218.63H30.05Q29.97 218.63 29.92 218.58Q29.87 218.53 29.87 218.46V210.43Q29.87 210.36 29.92 210.31Q29.97 210.26 30.05 210.26H36.22Q36.29 210.26 36.34 210.31Q36.39 210.36 36.39 210.43Q36.39 210.51 36.34 210.56Q36.29 210.61 36.22 210.61Z" fill="#FF69B4" stroke="#FF69B4" stroke-width="0.15"/>
  <path d="M42.22 210.36 45.52 218.39Q45.54 218.46 45.52 218.52Q45.49 218.59 45.42 218.62Q45.35 218.65 45.28 218.62Q45.22 218.59 45.19 218.53L42.06 210.9L40.85 213.84H42.07Q42.14 213.84 42.19 213.89Q42.24 213.94 42.24 214.01Q42.24 214.09 42.19 214.14Q42.14 214.19 42.07 214.19H40.71L38.93 218.53Q38.87 218.63 38.76 218.63Q38.73 218.63 38.7 218.62Q38.63 218.59 38.6 218.52Q38.57 218.46 38.6 218.39L40.42 213.94Q40.42 213.94 40.43 213.94Q40.43 213.94 40.43 213.94L41.89 210.36Q41.95 210.26 42.06 210.26Q42.17 210.26 42.22 210.36Z" fill="#FF69B4" stroke="#FF69B4" stroke-width="0.15"/>
  <path d="M55.44 210.26Q55.51 210.26 55.56 210.31Q55.62 210.36 55.62 210.43V215.17Q55.62 216.6 54.6 217.62Q53.58 218.63 52.14 218.63Q50.71 218.63 49.69 217.62Q48.67 216.6 48.67 215.17V210.43Q48.67 210.36 48.72 210.31Q48.78 210.26 48.85 210.26Q48.92 210.26 48.98 210.31Q49.03 210.36 49.03 210.43V215.17Q49.03 216.45 49.94 217.37Q50.85 218.28 52.14 218.28Q53.43 218.28 54.35 217.37Q55.26 216.45 55.26 215.17V210.43Q55.26 210.36 55.31 210.31Q55.36 210.26 55.44 210.26Z" fill="#FF69B4" stroke="#FF69B4" stroke-width="0.15"/>
  <path d="M64.59 210.26Q64.66 210.26 64.71 210.31Q64.77 210.36 64.77 210.43Q64.77 210.51 64.71 210.56Q64.66 210.61 64.59 210.61H61.79V218.46Q61.79 218.53 61.73 218.58Q61.68 218.63 61.61 218.63Q61.53 218.63 61.48 218.58Q61.43 218.53 61.43 218.46V210.61H58.56Q58.49 210.61 58.44 210.56Q58.39 210.51 58.39 210.43Q58.39 210.36 58.44 210.31Q58.49 210.26 58.56 210.26Z" fill="#FF69B4" stroke="#FF69B4" stroke-width="0.15"/>
  <path d="M73.9 210.33Q73.95 210.27 74.02 210.26Q74.09 210.25 74.15 210.29Q74.21 210.34 74.22 210.41Q74.23 210.48 74.18 210.55L67.88 218.56Q67.82 218.63 67.74 218.63Q67.68 218.63 67.63 218.6Q67.58 218.55 67.57 218.48Q67.56 218.41 67.6 218.34L70.67 214.45L67.6 210.55Q67.56 210.48 67.57 210.41Q67.58 210.34 67.63 210.29Q67.69 210.25 67.76 210.26Q67.84 210.27 67.88 210.33L70.89 214.15Z" fill="#FF69B4" stroke="#FF69B4" stroke-width="0.15"/>
  <path d="M84.59 210.26Q86.32 210.26 87.55 211.48Q88.78 212.71 88.78 214.45Q88.78 216.18 87.55 217.41Q86.32 218.63 84.59 218.63H82.2Q82.12 218.63 82.07 218.58Q82.02 218.53 82.02 218.46V210.43Q82.02 210.36 82.07 210.31Q82.12 210.26 82.2 210.26ZM84.59 218.28Q86.17 218.28 87.3 217.16Q88.42 216.03 88.42 214.45Q88.42 212.86 87.3 211.73Q86.17 210.61 84.59 210.61H82.38V218.28Z" fill="#FF69B4" stroke="#FF69B4" stroke-width="0.15"/>
  <path d="M97.93 210.61H91.94V214.27H96.42Q96.49 214.27 96.54 214.32Q96.59 214.37 96.59 214.45Q96.59 214.52 96.54 214.57Q96.49 214.62 96.42 214.62H91.94V218.28H97.93Q98.01 218.28 98.06 218.33Q98.11 218.38 98.11 218.46Q98.11 218.53 98.06 218.58Q98.01 218.63 97.93 218.63H91.76Q91.69 218.63 91.64 218.58Q91.59 218.53 91.59 218.46V210.43Q91.59 210.36 91.64 210.31Q91.69 210.26 91.76 210.26H97.93Q98.01 210.26 98.06 210.31Q98.11 210.36 98.11 210.43Q98.11 210.51 98.06 210.56Q98.01 210.61 97.93 210.61Z" fill="#FF69B4" stroke="#FF69B4" stroke-width="0.15"/>
  <path d="M104.16 210.61Q102.98 210.61 102.14 211.53Q101.3 212.44 101.3 213.72V215.17Q101.3 216.45 102.14 217.37Q102.98 218.28 104.16 218.28Q105.17 218.28 105.94 217.62Q106.71 216.96 106.96 215.88Q106.98 215.81 107.04 215.77Q107.1 215.73 107.17 215.75Q107.24 215.77 107.28 215.82Q107.33 215.88 107.31 215.96Q107.03 217.16 106.16 217.9Q105.3 218.63 104.16 218.63Q102.83 218.63 101.89 217.62Q100.94 216.6 100.94 215.17V213.72Q100.94 212.29 101.89 211.27Q102.83 210.26 104.16 210.26Q105.3 210.26 106.16 210.99Q107.03 211.73 107.31 212.93Q107.33 213.01 107.28 213.07Q107.24 213.12 107.17 213.14Q107.1 213.16 107.04 213.12Q106.98 213.08 106.96 213.01Q106.71 211.93 105.94 211.27Q105.17 210.61 104.16 210.61Z" fill="#FF69B4" stroke="#FF69B4" stroke-width="0.15"/>
  <path d="M110.23 210.6Q110.16 210.6 110.11 210.55Q110.06 210.5 110.06 210.43Q110.06 210.36 110.11 210.31Q110.16 210.26 110.23 210.26H111.69Q111.76 210.26 111.81 210.31Q111.86 210.36 111.86 210.43Q111.86 210.5 111.81 210.55Q111.76 210.6 111.69 210.6H111.14V217.93L111.63 217.75Q111.7 217.72 111.76 217.75Q111.82 217.78 111.85 217.85Q111.87 217.92 111.85 217.98Q111.82 218.04 111.75 218.07L111.04 218.34Q111.03 218.34 111.02 218.35L110.29 218.62Q110.26 218.63 110.23 218.63Q110.13 218.63 110.07 218.52Q110.05 218.46 110.08 218.39Q110.1 218.33 110.17 218.3L110.8 218.06V210.6Z" fill="#FF69B4" stroke="#FF69B4" stroke-width="0.15"/>
  <path d="M116.82 218.63Q115.88 218.63 115.21 217.97Q114.54 217.3 114.54 216.36Q114.54 216.28 114.59 216.23Q114.65 216.18 114.72 216.18Q114.79 216.18 114.84 216.23Q114.89 216.28 114.89 216.36Q114.89 217.15 115.46 217.71Q116.02 218.28 116.82 218.28H118.91Q119.71 218.28 120.28 217.71Q120.84 217.15 120.84 216.36Q120.84 215.56 120.28 215.0Q119.71 214.43 118.91 214.43H116.92Q116.05 214.43 115.44 213.82Q114.82 213.21 114.82 212.34Q114.82 211.48 115.44 210.87Q116.05 210.26 116.92 210.26H118.82Q119.69 210.26 120.3 210.87Q120.91 211.48 120.91 212.34Q120.91 212.42 120.86 212.47Q120.81 212.52 120.73 212.52Q120.66 212.52 120.61 212.47Q120.56 212.42 120.56 212.34Q120.56 211.63 120.04 211.12Q119.53 210.61 118.82 210.61H116.92Q116.2 210.61 115.69 211.12Q115.18 211.63 115.18 212.34Q115.18 213.06 115.69 213.57Q116.2 214.08 116.92 214.08H118.91Q119.86 214.08 120.53 214.75Q121.2 215.42 121.2 216.36Q121.2 217.3 120.53 217.97Q119.86 218.63 118.91 218.63Z" fill="#FF69B4" stroke="#FF69B4" stroke-width="0.15"/>
  <path d="M124.08 210.6Q124.01 210.6 123.96 210.55Q123.91 210.5 123.91 210.43Q123.91 210.36 123.96 210.31Q124.01 210.26 124.08 210.26H125.54Q125.61 210.26 125.66 210.31Q125.71 210.36 125.71 210.43Q125.71 210.5 125.66 210.55Q125.61 210.6 125.54 210.6H124.99V217.93L125.48 217.75Q125.55 217.72 125.61 217.75Q125.68 217.78 125.7 217.85Q125.73 217.92 125.7 217.98Q125.67 218.04 125.6 218.07L124.89 218.34Q124.88 218.34 124.87 218.35L124.15 218.62Q124.11 218.63 124.08 218.63Q123.98 218.63 123.92 218.52Q123.9 218.46 123.93 218.39Q123.96 218.33 124.03 218.3L124.65 218.06V210.6Z" fill="#FF69B4" stroke="#FF69B4" stroke-width="0.15"/>
  <path d="M131.86 210.26Q133.3 210.26 134.32 211.27Q135.33 212.29 135.33 213.72V215.17Q135.33 216.6 134.32 217.62Q133.3 218.63 131.86 218.63Q130.43 218.63 129.41 217.62Q128.39 216.6 128.39 215.17V213.72Q128.39 212.29 129.41 211.27Q130.43 210.26 131.86 210.26ZM134.98 215.17V213.72Q134.98 212.44 134.06 211.53Q133.15 210.61 131.86 210.61Q130.57 210.61 129.66 211.53Q128.74 212.44 128.74 213.72V215.17Q128.74 216.45 129.66 217.37Q130.57 218.28 131.86 218.28Q133.15 218.28 134.06 217.37Q134.98 216.45 134.98 215.17Z" fill="#FF69B4" stroke="#FF69B4" stroke-width="0.15"/>
  <path d="M145.08 210.26Q145.15 210.26 145.2 210.31Q145.26 210.36 145.26 210.43V218.46Q145.26 218.53 145.2 218.58Q145.15 218.63 145.08 218.63Q145.01 218.63 144.95 218.58Q144.9 218.53 144.9 218.46V210.43Q144.9 210.36 144.95 210.31Q145.01 210.26 145.08 210.26ZM138.63 210.32 144.4 217.35Q144.45 217.4 144.44 217.48Q144.43 217.55 144.38 217.59Q144.31 217.64 144.24 217.64Q144.17 217.63 144.12 217.57L138.67 210.94V218.46Q138.67 218.53 138.62 218.58Q138.57 218.63 138.49 218.63Q138.42 218.63 138.37 218.58Q138.31 218.53 138.31 218.46V210.43Q138.31 210.32 138.44 210.27Q138.55 210.23 138.63 210.32Z" fill="#FF69B4" stroke="#FF69B4" stroke-width="0.15"/>
  <path d="M159.46 210.61H153.47V214.27H157.94Q158.02 214.27 158.07 214.32Q158.12 214.37 158.12 214.45Q158.12 214.52 158.07 214.57Q158.02 214.62 157.94 214.62H153.47V218.28H159.46Q159.54 218.28 159.59 218.33Q159.64 218.38 159.64 218.46Q159.64 218.53 159.59 218.58Q159.54 218.63 159.46 218.63H153.29Q153.21 218.63 153.16 218.58Q153.11 218.53 153.11 218.46V210.43Q153.11 210.36 153.16 210.31Q153.21 210.26 153.29 210.26H159.46Q159.54 210.26 159.59 210.31Q159.64 210.36 159.64 210.43Q159.64 210.51 159.59 210.56Q159.54 210.61 159.46 210.61Z" fill="#FF69B4" stroke="#FF69B4" stroke-width="0.15"/>
  <path d="M169.05 210.29Q169.11 210.34 169.12 210.41Q169.13 210.48 169.09 210.55L166.02 214.45L169.09 218.34Q169.13 218.41 169.12 218.48Q169.11 218.55 169.05 218.6Q169.0 218.63 168.95 218.63Q168.86 218.63 168.81 218.56L165.8 214.74L162.78 218.56Q162.73 218.63 162.64 218.63Q162.59 218.63 162.54 218.6Q162.48 218.55 162.47 218.48Q162.46 218.41 162.5 218.34L165.57 214.45L162.5 210.55Q162.46 210.48 162.47 210.41Q162.48 210.34 162.54 210.29Q162.59 210.25 162.67 210.26Q162.74 210.27 162.78 210.33L165.8 214.15L168.81 210.33Q168.85 210.27 168.92 210.26Q169.0 210.25 169.05 210.29Z" fill="#FF69B4" stroke="#FF69B4" stroke-width="0.15"/>
  <path d="M177.11 210.27Q177.81 210.27 178.31 210.77Q178.81 211.27 178.81 211.96Q178.81 213.19 177.94 214.07Q177.07 214.94 175.84 214.94H172.66V218.46Q172.66 218.53 172.6 218.58Q172.55 218.63 172.48 218.63Q172.4 218.63 172.35 218.58Q172.3 218.53 172.3 218.46V214.76V210.45V210.43Q172.3 210.36 172.35 210.31Q172.4 210.26 172.48 210.26Q172.51 210.26 172.53 210.27ZM175.84 214.58Q176.92 214.58 177.68 213.82Q178.45 213.05 178.45 211.96Q178.45 211.41 178.06 211.01Q177.67 210.62 177.11 210.62H172.66V214.58Z" fill="#FF69B4" stroke="#FF69B4" stroke-width="0.15"/>
  <path d="M187.7 210.61H181.71V214.27H186.18Q186.26 214.27 186.31 214.32Q186.36 214.37 186.36 214.45Q186.36 214.52 186.31 214.57Q186.26 214.62 186.18 214.62H181.71V218.28H187.7Q187.77 218.28 187.83 218.33Q187.88 218.38 187.88 218.46Q187.88 218.53 187.83 218.58Q187.77 218.63 187.7 218.63H181.53Q181.45 218.63 181.4 218.58Q181.35 218.53 181.35 218.46V210.43Q181.35 210.36 181.4 210.31Q181.45 210.26 181.53 210.26H187.7Q187.77 210.26 187.83 210.31Q187.88 210.36 187.88 210.43Q187.88 210.51 187.83 210.56Q187.77 210.61 187.7 210.61Z" fill="#FF69B4" stroke="#FF69B4" stroke-width="0.15"/>
  <path d="M194.37 214.29Q197.15 215.38 197.65 218.44Q197.66 218.51 197.61 218.57Q197.57 218.62 197.49 218.63Q197.48 218.63 197.47 218.63Q197.4 218.63 197.35 218.59Q197.3 218.55 197.29 218.48Q197.05 216.68 195.75 215.52Q194.45 214.36 192.67 214.36H191.06V218.46Q191.06 218.53 191.01 218.58Q190.96 218.63 190.88 218.63Q190.81 218.63 190.76 218.58Q190.7 218.53 190.7 218.46V214.18V210.43Q190.7 210.36 190.76 210.31Q190.81 210.26 190.88 210.26H193.9Q194.74 210.26 195.34 210.86Q195.95 211.46 195.95 212.31Q195.95 213.03 195.51 213.58Q195.07 214.12 194.37 214.29ZM191.06 213.99H192.67H193.9Q194.6 213.99 195.09 213.5Q195.59 213.0 195.59 212.31Q195.59 211.61 195.09 211.11Q194.6 210.61 193.9 210.61H191.06Z" fill="#FF69B4" stroke="#FF69B4" stroke-width="0.15"/>
  <path d="M200.6 210.6Q200.53 210.6 200.48 210.55Q200.43 210.5 200.43 210.43Q200.43 210.36 200.48 210.31Q200.53 210.26 200.6 210.26H202.06Q202.13 210.26 202.19 210.31Q202.24 210.36 202.24 210.43Q202.24 210.5 202.19 210.55Q202.13 210.6 202.06 210.6H201.51V217.93L202.0 217.75Q202.07 217.72 202.13 217.75Q202.2 217.78 202.22 217.85Q202.25 217.92 202.22 217.98Q202.19 218.04 202.12 218.07L201.42 218.34Q201.4 218.34 201.39 218.35L200.67 218.62Q200.64 218.63 200.6 218.63Q200.5 218.63 200.45 218.52Q200.42 218.46 200.45 218.39Q200.48 218.33 200.55 218.3L201.17 218.06V210.6Z" fill="#FF69B4" stroke="#FF69B4" stroke-width="0.15"/>
  <path d="M211.26 210.61H205.27V214.27H209.74Q209.82 214.27 209.87 214.32Q209.92 214.37 209.92 214.45Q209.92 214.52 209.87 214.57Q209.82 214.62 209.74 214.62H205.27V218.28H211.26Q211.34 218.28 211.39 218.33Q211.44 218.38 211.44 218.46Q211.44 218.53 211.39 218.58Q211.34 218.63 211.26 218.63H205.09Q205.01 218.63 204.96 218.58Q204.91 218.53 204.91 218.46V210.43Q204.91 210.36 204.96 210.31Q205.01 210.26 205.09 210.26H211.26Q211.34 210.26 211.39 210.31Q211.44 210.36 211.44 210.43Q211.44 210.51 211.39 210.56Q211.34 210.61 211.26 210.61Z" fill="#FF69B4" stroke="#FF69B4" stroke-width="0.15"/>
  <path d="M221.03 210.26Q221.1 210.26 221.16 210.31Q221.21 210.36 221.21 210.43V218.46Q221.21 218.53 221.16 218.58Q221.1 218.63 221.03 218.63Q220.96 218.63 220.91 218.58Q220.85 218.53 220.85 218.46V210.43Q220.85 210.36 220.91 210.31Q220.96 210.26 221.03 210.26ZM214.58 210.32 220.35 217.35Q220.4 217.4 220.39 217.48Q220.38 217.55 220.33 217.59Q220.26 217.64 220.19 217.64Q220.12 217.63 220.07 217.57L214.62 210.94V218.46Q214.62 218.53 214.57 218.58Q214.52 218.63 214.44 218.63Q214.37 218.63 214.32 218.58Q214.27 218.53 214.27 218.46V210.43Q214.27 210.32 214.39 210.27Q214.5 210.23 214.58 210.32Z" fill="#FF69B4" stroke="#FF69B4" stroke-width="0.15"/>
  <path d="M227.25 210.61Q226.07 210.61 225.23 211.53Q224.38 212.44 224.38 213.72V215.17Q224.38 216.45 225.23 217.37Q226.07 218.28 227.25 218.28Q228.25 218.28 229.02 217.62Q229.8 216.96 230.04 215.88Q230.06 215.81 230.12 215.77Q230.18 215.73 230.26 215.75Q230.33 215.77 230.37 215.82Q230.41 215.88 230.39 215.96Q230.11 217.16 229.25 217.9Q228.39 218.63 227.25 218.63Q225.92 218.63 224.97 217.62Q224.03 216.6 224.03 215.17V213.72Q224.03 212.29 224.97 211.27Q225.92 210.26 227.25 210.26Q228.39 210.26 229.25 210.99Q230.11 211.73 230.39 212.93Q230.41 213.01 230.37 213.07Q230.33 213.12 230.26 213.14Q230.18 213.16 230.12 213.12Q230.06 213.08 230.04 213.01Q229.8 211.93 229.02 211.27Q228.25 210.61 227.25 210.61Z" fill="#FF69B4" stroke="#FF69B4" stroke-width="0.15"/>
  <path d="M239.49 210.61H233.5V214.27H237.98Q238.05 214.27 238.1 214.32Q238.15 214.37 238.15 214.45Q238.15 214.52 238.1 214.57Q238.05 214.62 237.98 214.62H233.5V218.28H239.49Q239.57 218.28 239.62 218.33Q239.67 218.38 239.67 218.46Q239.67 218.53 239.62 218.58Q239.57 218.63 239.49 218.63H233.32Q233.25 218.63 233.2 218.58Q233.14 218.53 233.14 218.46V210.43Q233.14 210.36 233.2 210.31Q233.25 210.26 233.32 210.26H239.49Q239.57 210.26 239.62 210.31Q239.67 210.36 239.67 210.43Q239.67 210.51 239.62 210.56Q239.57 210.61 239.49 210.61Z" fill="#FF69B4" stroke="#FF69B4" stroke-width="0.15"/>
</svg>
