<svg viewBox="0 0 260 56" xmlns="http://www.w3.org/2000/svg">
  <g>
    <path d="M785 629Q929 614 1025.0 511.5Q1121 409 1121 265Q1121 114 1013.5 7.0Q906 -100 754 -100H128Q117 -100 108.5 -92.0Q100 -84 100 -72V602V1192Q100 1204 108.5 1212.0Q117 1220 128 1220H604Q738 1220 833.5 1125.5Q929 1031 929 897Q929 730 785 629ZM157 1164V631H604Q715 631 793.5 709.0Q872 787 872 897Q872 1007 793.5 1085.5Q715 1164 604 1164ZM754 -44Q882 -44 973.0 47.0Q1064 138 1064 265Q1064 393 973.0 483.5Q882 574 754 574H604H157V-44Z" transform="translate(10.0000,28.0000) scale(0.017578,-0.017578)" fill="#FF0066"/>
    <path d="M505 1220Q777 1220 970.5 1026.5Q1164 833 1164 560Q1164 287 970.5 93.5Q777 -100 505 -100H128Q116 -100 108.0 -92.0Q100 -84 100 -72V1192Q100 1204 108.0 1212.0Q116 1220 128 1220ZM505 -44Q754 -44 931.0 133.0Q1108 310 1108 560Q1108 810 931.0 987.0Q754 1164 505 1164H156V-44Z" transform="translate(118.5039,28.0000) scale(0.017578,-0.017578)" fill="#FF0066"/>
    <path d="M1138 1214Q1147 1206 1148.5 1195.0Q1150 1184 1143 1174L660 560L1143 -54Q1150 -64 1148.5 -75.0Q1147 -86 1138 -94Q1130 -100 1121 -100Q1108 -100 1099 -89L625 514L150 -89Q141 -100 128 -100Q119 -100 111 -94Q102 -86 100.5 -75.0Q99 -64 106 -54L589 560L106 1174Q99 1184 100.5 1195.0Q102 1206 111 1214Q120 1221 131.5 1219.5Q143 1218 150 1209L625 606L1099 1209Q1106 1218 1117.5 1219.5Q1129 1221 1138 1214Z" transform="translate(227.9219,28.0000) scale(0.017578,-0.017578)" fill="#FF0066"/>
  </g>
  <g>
    <path d="M785 629Q929 614 1025.0 511.5Q1121 409 1121 265Q1121 114 1013.5 7.0Q906 -100 754 -100H128Q117 -100 108.5 -92.0Q100 -84 100 -72V602V1192Q100 1204 108.5 1212.0Q117 1220 128 1220H604Q738 1220 833.5 1125.5Q929 1031 929 897Q929 730 785 629ZM157 1164V631H604Q715 631 793.5 709.0Q872 787 872 897Q872 1007 793.5 1085.5Q715 1164 604 1164ZM754 -44Q882 -44 973.0 47.0Q1064 138 1064 265Q1064 393 973.0 483.5Q882 574 754 574H604H157V-44Z" transform="translate(10.0000,50.0000) scale(0.005859,-0.005859)" fill="#FF69B4" stroke="#FF69B4" stroke-width="0.2"/>
    <path d="M1100 1164H156V588H861Q873 588 881.0 580.0Q889 572 889 560Q889 548 881.0 540.0Q873 532 861 532H156V-44H1100Q1112 -44 1120.0 -52.0Q1128 -60 1128 -72Q1128 -84 1120.0 -92.0Q1112 -100 1100 -100H128Q116 -100 108.0 -92.0Q100 -84 100 -72V1192Q100 1204 108.0 1212.0Q116 1220 128 1220H1100Q1112 1220 1120.0 1212.0Q1128 1204 1128 1192Q1128 1180 1120.0 1172.0Q1112 1164 1100 1164Z" transform="translate(19.9961,50.0000) scale(0.005859,-0.005859)" fill="#FF69B4" stroke="#FF69B4" stroke-width="0.2"/>
    <path d="M573 1203 1092 -61Q1096 -72 1091.5 -82.5Q1087 -93 1076 -98Q1065 -102 1055.0 -97.5Q1045 -93 1040 -83L547 1118L357 656H548Q560 656 568.0 648.0Q576 640 576 628Q576 616 568.0 608.0Q560 600 548 600H334L54 -83Q45 -100 28 -100Q23 -100 18 -98Q7 -93 2.5 -82.5Q-2 -72 2 -61L289 639Q289 639 290 639Q290 639 290 639L521 1203Q530 1220 547 1220Q564 1220 573 1203Z" transform="translate(30.1035,50.0000) scale(0.005859,-0.005859)" fill="#FF69B4" stroke="#FF69B4" stroke-width="0.2"/>
    <path d="M1166 1220Q1177 1220 1185.5 1212.0Q1194 1204 1194 1192V446Q1194 220 1033.5 60.0Q873 -100 647 -100Q421 -100 260.5 60.0Q100 220 100 446V1192Q100 1204 108.5 1212.0Q117 1220 128 1220Q140 1220 148.0 1212.0Q156 1204 156 1192V446Q156 244 300.0 100.0Q444 -44 647 -44Q850 -44 994.0 100.0Q1138 244 1138 446V1192Q1138 1204 1146.0 1212.0Q1154 1220 1166 1220Z" transform="translate(40.2988,50.0000) scale(0.005859,-0.005859)" fill="#FF69B4" stroke="#FF69B4" stroke-width="0.2"/>
    <path d="M1077 1220Q1089 1220 1097.0 1212.0Q1105 1204 1105 1192Q1105 1180 1097.0 1172.0Q1089 1164 1077 1164H636V-72Q636 -84 627.5 -92.0Q619 -100 608 -100Q596 -100 587.5 -92.0Q579 -84 579 -72V1164H128Q116 1164 108.0 1172.0Q100 1180 100 1192Q100 1204 108.0 1212.0Q116 1220 128 1220Z" transform="translate(50.7402,50.0000) scale(0.005859,-0.005859)" fill="#FF69B4" stroke="#FF69B4" stroke-width="0.2"/>
    <path d="M1099 1209Q1106 1218 1117.5 1219.5Q1129 1221 1138 1214Q1147 1206 1148.5 1195.0Q1150 1184 1143 1174L150 -89Q141 -100 128 -100Q119 -100 111 -94Q102 -86 100.5 -75.0Q99 -64 106 -54L589 560L106 1174Q99 1184 100.5 1195.0Q102 1206 111 1214Q120 1221 131.5 1219.5Q143 1218 150 1209L625 606Z" transform="translate(60.6836,50.0000) scale(0.005859,-0.005859)" fill="#FF69B4" stroke="#FF69B4" stroke-width="0.2"/>
    <path d="M505 1220Q777 1220 970.5 1026.5Q1164 833 1164 560Q1164 287 970.5 93.5Q777 -100 505 -100H128Q116 -100 108.0 -92.0Q100 -84 100 -72V1192Q100 1204 108.0 1212.0Q116 1220 128 1220ZM505 -44Q754 -44 931.0 133.0Q1108 310 1108 560Q1108 810 931.0 987.0Q754 1164 505 1164H156V-44Z" transform="translate(77.0254,50.0000) scale(0.005859,-0.005859)" fill="#FF69B4" stroke="#FF69B4" stroke-width="0.2"/>
    <path d="M1100 1164H156V588H861Q873 588 881.0 580.0Q889 572 889 560Q889 548 881.0 540.0Q873 532 861 532H156V-44H1100Q1112 -44 1120.0 -52.0Q1128 -60 1128 -72Q1128 -84 1120.0 -92.0Q1112 -100 1100 -100H128Q116 -100 108.0 -92.0Q100 -84 100 -72V1192Q100 1204 108.0 1212.0Q116 1220 128 1220H1100Q1112 1220 1120.0 1212.0Q1128 1204 1128 1192Q1128 1180 1120.0 1172.0Q1112 1164 1100 1164Z" transform="translate(87.3262,50.0000) scale(0.005859,-0.005859)" fill="#FF69B4" stroke="#FF69B4" stroke-width="0.2"/>
    <path d="M608 1164Q422 1164 289.0 1020.0Q156 876 156 674V446Q156 244 289.0 100.0Q422 -44 608 -44Q766 -44 887.5 60.0Q1009 164 1048 334Q1051 345 1060.5 351.0Q1070 357 1082 355Q1093 352 1099.5 343.0Q1106 334 1103 322Q1059 132 923.0 16.0Q787 -100 608 -100Q398 -100 249.0 60.0Q100 220 100 446V674Q100 900 249.0 1060.0Q398 1220 608 1220Q787 1220 923.0 1104.0Q1059 988 1103 798Q1106 786 1099.5 777.0Q1093 768 1082 765Q1070 762 1060.5 768.5Q1051 775 1048 786Q1009 956 887.5 1060.0Q766 1164 608 1164Z" transform="translate(97.4336,50.0000) scale(0.005859,-0.005859)" fill="#FF69B4" stroke="#FF69B4" stroke-width="0.2"/>
    <path d="M127 1166Q116 1166 108.0 1173.5Q100 1181 100 1193Q100 1204 108.0 1212.0Q116 1220 127 1220H357Q368 1220 376.0 1212.0Q384 1204 384 1193Q384 1181 376.0 1173.5Q368 1166 357 1166H270V11L347 40Q358 44 368.0 39.5Q378 35 382 24Q386 13 381.5 3.5Q377 -6 366 -11L255 -53Q253 -54 251 -55L137 -98Q132 -100 127 -100Q111 -100 102 -82Q98 -72 102.5 -62.0Q107 -52 118 -47L216 -10V1166Z" transform="translate(107.3242,50.0000) scale(0.005859,-0.005859)" fill="#FF69B4" stroke="#FF69B4" stroke-width="0.2"/>
    <path d="M460 -100Q311 -100 205.5 5.0Q100 110 100 259Q100 271 108.5 279.0Q117 287 128 287Q140 287 148.0 279.0Q156 271 156 259Q156 134 245.0 45.0Q334 -44 460 -44H789Q915 -44 1004.0 45.0Q1093 134 1093 259Q1093 384 1004.0 473.0Q915 562 789 562H475Q338 562 241.5 658.5Q145 755 145 891Q145 1027 241.5 1123.5Q338 1220 475 1220H774Q911 1220 1007.5 1123.5Q1104 1027 1104 891Q1104 879 1096.0 871.0Q1088 863 1076 863Q1064 863 1056.0 871.0Q1048 879 1048 891Q1048 1004 967.5 1084.0Q887 1164 774 1164H475Q362 1164 281.5 1084.0Q201 1004 201 891Q201 778 281.5 698.0Q362 618 475 618H789Q938 618 1043.5 512.5Q1149 407 1149 259Q1149 110 1043.5 5.0Q938 -100 789 -100Z" transform="translate(112.9316,50.0000) scale(0.005859,-0.005859)" fill="#FF69B4" stroke="#FF69B4" stroke-width="0.2"/>
    <path d="M127 1166Q116 1166 108.0 1173.5Q100 1181 100 1193Q100 1204 108.0 1212.0Q116 1220 127 1220H357Q368 1220 376.0 1212.0Q384 1204 384 1193Q384 1181 376.0 1173.5Q368 1166 357 1166H270V11L347 40Q358 44 368.0 39.5Q378 35 382 24Q386 13 381.5 3.5Q377 -6 366 -11L255 -53Q253 -54 251 -55L137 -98Q132 -100 127 -100Q111 -100 102 -82Q98 -72 102.5 -62.0Q107 -52 118 -47L216 -10V1166Z" transform="translate(123.0566,50.0000) scale(0.005859,-0.005859)" fill="#FF69B4" stroke="#FF69B4" stroke-width="0.2"/>
    <path d="M647 1220Q873 1220 1033.5 1060.0Q1194 900 1194 674V446Q1194 220 1033.5 60.0Q873 -100 647 -100Q421 -100 260.5 60.0Q100 220 100 446V674Q100 900 260.5 1060.0Q421 1220 647 1220ZM1138 446V674Q1138 876 994.0 1020.0Q850 1164 647 1164Q444 1164 300.0 1020.0Q156 876 156 674V446Q156 244 300.0 100.0Q444 -44 647 -44Q850 -44 994.0 100.0Q1138 244 1138 446Z" transform="translate(128.6641,50.0000) scale(0.005859,-0.005859)" fill="#FF69B4" stroke="#FF69B4" stroke-width="0.2"/>
    <path d="M1166 1220Q1177 1220 1185.5 1212.0Q1194 1204 1194 1192V-72Q1194 -84 1185.5 -92.0Q1177 -100 1166 -100Q1154 -100 1146.0 -92.0Q1138 -84 1138 -72V1192Q1138 1204 1146.0 1212.0Q1154 1220 1166 1220ZM150 1210 1059 103Q1066 94 1065.0 82.5Q1064 71 1055 64Q1045 56 1034.0 57.0Q1023 58 1015 68L156 1113V-72Q156 -84 148.0 -92.0Q140 -100 128 -100Q117 -100 108.5 -92.0Q100 -84 100 -72V1192Q100 1210 119 1218Q137 1224 150 1210Z" transform="translate(139.2988,50.0000) scale(0.005859,-0.005859)" fill="#FF69B4" stroke="#FF69B4" stroke-width="0.2"/>
    <path d="M1100 1164H156V588H861Q873 588 881.0 580.0Q889 572 889 560Q889 548 881.0 540.0Q873 532 861 532H156V-44H1100Q1112 -44 1120.0 -52.0Q1128 -60 1128 -72Q1128 -84 1120.0 -92.0Q1112 -100 1100 -100H128Q116 -100 108.0 -92.0Q100 -84 100 -72V1192Q100 1204 108.0 1212.0Q116 1220 128 1220H1100Q1112 1220 1120.0 1212.0Q1128 1204 1128 1192Q1128 1180 1120.0 1172.0Q1112 1164 1100 1164Z" transform="translate(155.9512,50.0000) scale(0.005859,-0.005859)" fill="#FF69B4" stroke="#FF69B4" stroke-width="0.2"/>
    <path d="M1138 1214Q1147 1206 1148.5 1195.0Q1150 1184 1143 1174L660 560L1143 -54Q1150 -64 1148.5 -75.0Q1147 -86 1138 -94Q1130 -100 1121 -100Q1108 -100 1099 -89L625 514L150 -89Q141 -100 128 -100Q119 -100 111 -94Q102 -86 100.5 -75.0Q99 -64 106 -54L589 560L106 1174Q99 1184 100.5 1195.0Q102 1206 111 1214Q120 1221 131.5 1219.5Q143 1218 150 1209L625 606L1099 1209Q1106 1218 1117.5 1219.5Q1129 1221 1138 1214Z" transform="translate(166.0586,50.0000) scale(0.005859,-0.005859)" fill="#FF69B4" stroke="#FF69B4" stroke-width="0.2"/>
    <path d="M858 1218Q968 1218 1046.5 1139.5Q1125 1061 1125 951Q1125 757 988.0 619.5Q851 482 657 482H156V-72Q156 -84 147.5 -92.0Q139 -100 128 -100Q116 -100 108.0 -92.0Q100 -84 100 -72V510V1190V1192Q100 1204 108.0 1212.0Q116 1220 128 1220Q132 1220 136 1218ZM657 538Q827 538 948.0 659.0Q1069 780 1069 951Q1069 1038 1007.0 1100.5Q945 1163 858 1163H156V538Z" transform="translate(176.6113,50.0000) scale(0.005859,-0.005859)" fill="#FF69B4" stroke="#FF69B4" stroke-width="0.2"/>
    <path d="M1100 1164H156V588H861Q873 588 881.0 580.0Q889 572 889 560Q889 548 881.0 540.0Q873 532 861 532H156V-44H1100Q1112 -44 1120.0 -52.0Q1128 -60 1128 -72Q1128 -84 1120.0 -92.0Q1112 -100 1100 -100H128Q116 -100 108.0 -92.0Q100 -84 100 -72V1192Q100 1204 108.0 1212.0Q116 1220 128 1220H1100Q1112 1220 1120.0 1212.0Q1128 1204 1128 1192Q1128 1180 1120.0 1172.0Q1112 1164 1100 1164Z" transform="translate(186.4375,50.0000) scale(0.005859,-0.005859)" fill="#FF69B4" stroke="#FF69B4" stroke-width="0.2"/>
    <path d="M678 584Q1116 412 1194 -69Q1195 -81 1188.0 -89.5Q1181 -98 1169 -100Q1167 -100 1166 -100Q1155 -100 1147.0 -93.0Q1139 -86 1138 -75Q1100 208 895.0 391.0Q690 574 410 574H156V-72Q156 -84 148.0 -92.0Q140 -100 128 -100Q117 -100 108.5 -92.0Q100 -84 100 -72V602V1192Q100 1204 108.5 1212.0Q117 1220 128 1220H603Q736 1220 831.0 1125.5Q926 1031 926 897Q926 783 856.5 697.0Q787 611 678 584ZM156 631H410H603Q713 631 791.5 709.0Q870 787 870 897Q870 1007 791.5 1085.5Q713 1164 603 1164H156Z" transform="translate(196.5449,50.0000) scale(0.005859,-0.005859)" fill="#FF69B4" stroke="#FF69B4" stroke-width="0.2"/>
    <path d="M127 1166Q116 1166 108.0 1173.5Q100 1181 100 1193Q100 1204 108.0 1212.0Q116 1220 127 1220H357Q368 1220 376.0 1212.0Q384 1204 384 1193Q384 1181 376.0 1173.5Q368 1166 357 1166H270V11L347 40Q358 44 368.0 39.5Q378 35 382 24Q386 13 381.5 3.5Q377 -6 366 -11L255 -53Q253 -54 251 -55L137 -98Q132 -100 127 -100Q111 -100 102 -82Q98 -72 102.5 -62.0Q107 -52 118 -47L216 -10V1166Z" transform="translate(206.9980,50.0000) scale(0.005859,-0.005859)" fill="#FF69B4" stroke="#FF69B4" stroke-width="0.2"/>
    <path d="M1100 1164H156V588H861Q873 588 881.0 580.0Q889 572 889 560Q889 548 881.0 540.0Q873 532 861 532H156V-44H1100Q1112 -44 1120.0 -52.0Q1128 -60 1128 -72Q1128 -84 1120.0 -92.0Q1112 -100 1100 -100H128Q116 -100 108.0 -92.0Q100 -84 100 -72V1192Q100 1204 108.0 1212.0Q116 1220 128 1220H1100Q1112 1220 1120.0 1212.0Q1128 1204 1128 1192Q1128 1180 1120.0 1172.0Q1112 1164 1100 1164Z" transform="translate(212.6055,50.0000) scale(0.005859,-0.005859)" fill="#FF69B4" stroke="#FF69B4" stroke-width="0.2"/>
    <path d="M1166 1220Q1177 1220 1185.5 1212.0Q1194 1204 1194 1192V-72Q1194 -84 1185.5 -92.0Q1177 -100 1166 -100Q1154 -100 1146.0 -92.0Q1138 -84 1138 -72V1192Q1138 1204 1146.0 1212.0Q1154 1220 1166 1220ZM150 1210 1059 103Q1066 94 1065.0 82.5Q1064 71 1055 64Q1045 56 1034.0 57.0Q1023 58 1015 68L156 1113V-72Q156 -84 148.0 -92.0Q140 -100 128 -100Q117 -100 108.5 -92.0Q100 -84 100 -72V1192Q100 1210 119 1218Q137 1224 150 1210Z" transform="translate(222.7129,50.0000) scale(0.005859,-0.005859)" fill="#FF69B4" stroke="#FF69B4" stroke-width="0.2"/>
    <path d="M608 1164Q422 1164 289.0 1020.0Q156 876 156 674V446Q156 244 289.0 100.0Q422 -44 608 -44Q766 -44 887.5 60.0Q1009 164 1048 334Q1051 345 1060.5 351.0Q1070 357 1082 355Q1093 352 1099.5 343.0Q1106 334 1103 322Q1059 132 923.0 16.0Q787 -100 608 -100Q398 -100 249.0 60.0Q100 220 100 446V674Q100 900 249.0 1060.0Q398 1220 608 1220Q787 1220 923.0 1104.0Q1059 988 1103 798Q1106 786 1099.5 777.0Q1093 768 1082 765Q1070 762 1060.5 768.5Q1051 775 1048 786Q1009 956 887.5 1060.0Q766 1164 608 1164Z" transform="translate(233.1953,50.0000) scale(0.005859,-0.005859)" fill="#FF69B4" stroke="#FF69B4" stroke-width="0.2"/>
    <path d="M1100 1164H156V588H861Q873 588 881.0 580.0Q889 572 889 560Q889 548 881.0 540.0Q873 532 861 532H156V-44H1100Q1112 -44 1120.0 -52.0Q1128 -60 1128 -72Q1128 -84 1120.0 -92.0Q1112 -100 1100 -100H128Q116 -100 108.0 -92.0Q100 -84 100 -72V1192Q100 1204 108.0 1212.0Q116 1220 128 1220H1100Q1112 1220 1120.0 1212.0Q1128 1204 1128 1192Q1128 1180 1120.0 1172.0Q1112 1164 1100 1164Z" transform="translate(243.0859,50.0000) scale(0.005859,-0.005859)" fill="#FF69B4" stroke="#FF69B4" stroke-width="0.2"/>
  </g>
</svg>
